<?xml version="1.0" standalone="no"?>
<!DOCTYPE svg PUBLIC "-//W3C//DTD SVG 20010904//EN"
 "http://www.w3.org/TR/2001/REC-SVG-20010904/DTD/svg10.dtd">
<svg version="1.0" xmlns="http://www.w3.org/2000/svg"
 width="232.000000pt" height="278.000000pt" viewBox="0 0 232.000000 278.000000"
 preserveAspectRatio="xMidYMid meet">
<metadata>
Created by potrace 1.10, written by Peter Selinger 2001-2011
</metadata>
<g transform="translate(0.000000,278.000000) scale(0.100000,-0.100000)"
fill="#000000" stroke="none">
<path d="M1097 2754 c-15 -8 -27 -17 -27 -20 0 -2 14 3 31 12 17 8 29 12 26 7
-5 -8 -63 -45 -200 -127 -18 -11 -55 -34 -84 -53 -65 -42 -98 -54 -63 -23 l25
22 -25 -15 c-14 -8 -24 -20 -23 -26 3 -12 -36 -35 -45 -27 -3 3 0 6 6 6 7 0
12 5 12 11 0 8 -5 8 -15 -1 -8 -7 -13 -15 -11 -19 6 -9 -16 -35 -32 -39 -7 -1
-80 -45 -164 -97 -83 -53 -156 -94 -161 -92 -6 2 19 20 56 40 36 21 69 42 72
47 10 15 -3 12 -33 -9 -15 -11 -46 -31 -70 -45 -23 -15 -40 -31 -37 -36 3 -4
-30 -30 -72 -57 -54 -33 -72 -49 -59 -51 10 -2 22 1 26 8 4 6 16 12 28 13 11
0 19 4 17 8 -3 3 19 19 48 34 29 15 67 39 85 52 17 13 32 21 32 18 0 -4 14 5
31 19 17 14 36 26 43 26 7 0 29 13 47 30 19 16 43 33 54 36 11 3 28 16 38 28
10 11 15 15 11 7 -5 -10 3 -8 25 5 17 10 31 21 31 25 0 4 10 9 23 13 20 5 143
79 172 104 6 5 17 6 24 4 10 -3 12 0 8 12 -4 10 -3 15 3 11 6 -3 10 -1 10 4 0
6 3 10 8 9 11 -2 65 25 87 45 11 10 30 20 42 23 13 4 23 11 23 18 0 6 5 4 10
-4 8 -12 10 -11 10 7 0 33 20 39 21 6 3 -68 10 -137 15 -142 3 -3 4 22 2 56
-1 34 0 65 4 68 4 4 30 -7 58 -24 28 -17 52 -31 55 -31 2 0 43 -25 90 -56 48
-30 96 -59 108 -64 12 -5 46 -24 75 -42 29 -18 104 -64 167 -103 63 -38 115
-73 115 -78 0 -4 5 -5 10 -2 6 3 10 1 10 -6 0 -7 3 -9 6 -6 4 4 19 -2 34 -13
16 -11 33 -20 39 -20 6 0 11 -4 11 -8 0 -5 12 -15 27 -23 53 -27 158 -92 204
-125 29 -21 53 -32 63 -28 35 13 13 -7 -54 -51 -38 -25 -70 -48 -70 -50 0 -3
17 6 38 20 62 41 92 56 102 50 10 -6 11 -1225 0 -1265 -3 -13 -18 -31 -31 -40
-14 -8 -46 -28 -70 -44 -204 -133 -369 -236 -377 -236 -5 0 -15 -7 -22 -15
-10 -13 -110 -74 -209 -128 -18 -10 -38 -23 -45 -28 -28 -25 -155 -110 -186
-126 -19 -9 -37 -19 -40 -22 -9 -10 -98 -71 -103 -71 -3 0 -8 10 -10 23 -3 16
-5 13 -6 -10 0 -18 -5 -33 -11 -33 -6 0 -11 35 -12 83 -2 72 -2 75 -5 22 -5
-73 -15 -86 -45 -58 -22 19 -94 62 -211 125 -28 15 -53 31 -56 35 -6 7 -22 17
-76 47 -11 6 -22 14 -25 17 -3 4 -19 15 -37 25 -17 11 -76 46 -130 80 -54 33
-109 67 -123 75 -14 8 -28 18 -31 23 -4 5 -12 5 -18 2 -6 -4 -11 -3 -11 2 0 7
-35 30 -148 97 -53 32 -108 69 -113 78 -4 5 -11 7 -15 4 -5 -3 -15 1 -22 9
-10 11 -4 19 38 45 28 17 49 33 47 36 -3 2 -26 -10 -52 -28 -30 -20 -50 -28
-56 -22 -15 15 -23 1283 -8 1283 6 0 33 -13 60 -30 26 -16 46 -24 43 -17 -2 7
-22 21 -44 31 -53 25 -67 43 -50 59 10 9 11 9 6 0 -4 -7 -2 -13 3 -13 6 0 11
5 11 10 0 6 6 10 13 10 8 0 22 9 32 20 10 11 24 20 32 20 7 0 13 5 13 10 0 6
8 10 17 10 13 0 14 3 5 12 -8 8 -31 0 -92 -37 l-80 -49 0 -671 0 -672 30 -26
c16 -15 32 -27 35 -27 3 0 28 -16 55 -35 28 -19 50 -32 50 -28 0 5 7 0 14 -10
8 -10 20 -16 27 -15 8 2 13 -3 11 -10 -1 -8 2 -11 8 -7 5 3 13 -1 16 -10 4
-10 13 -13 25 -10 14 5 19 1 19 -10 0 -13 6 -16 21 -12 15 4 19 2 15 -9 -3 -9
-1 -12 4 -9 6 3 13 -1 16 -10 4 -10 13 -13 25 -10 13 5 19 1 19 -10 0 -10 7
-15 18 -13 10 2 16 -2 14 -10 -1 -8 2 -11 8 -7 5 3 13 -1 16 -10 4 -9 13 -14
20 -11 8 3 14 -1 14 -8 0 -13 23 -29 45 -31 6 0 30 -14 55 -30 25 -16 49 -29
53 -30 4 0 12 -6 16 -14 5 -8 14 -10 22 -6 8 5 11 5 7 0 -8 -8 39 -45 92 -71
19 -10 54 -30 77 -46 23 -15 46 -28 52 -28 6 0 11 -5 11 -10 0 -6 8 -10 18 -8
9 2 16 -3 14 -10 -1 -6 5 -12 13 -12 8 0 15 -5 15 -11 0 -6 7 -8 15 -5 9 3 18
-1 21 -9 4 -8 13 -15 20 -15 8 0 24 -9 36 -20 12 -10 24 -17 28 -15 4 3 13 -2
20 -10 19 -23 37 -19 119 30 112 67 108 65 202 131 48 34 116 78 151 98 34 20
72 42 83 49 127 78 258 161 320 203 28 19 53 34 56 34 7 0 109 68 178 118 24
18 50 32 58 32 11 0 13 114 13 669 l0 670 -52 36 c-92 63 -207 135 -216 135
-5 0 -17 9 -27 20 -10 11 -22 20 -28 20 -5 0 -29 14 -54 30 -24 17 -48 30 -54
30 -5 0 -9 4 -9 8 0 5 -12 15 -27 23 -16 7 -46 25 -68 40 -22 15 -44 28 -50
29 -5 2 -27 14 -47 26 -21 13 -40 24 -43 24 -3 0 -28 16 -55 35 -27 19 -52 35
-55 35 -3 0 -24 12 -48 27 -23 15 -48 26 -54 25 -7 -2 -13 1 -13 6 0 5 -18 21
-40 36 -22 14 -40 23 -40 20 0 -4 -9 1 -20 11 -11 10 -20 14 -20 9 0 -5 -7 -1
-14 9 -8 10 -20 16 -27 15 -8 -2 -13 2 -12 9 2 7 -4 10 -12 7 -10 -4 -15 0
-15 11 0 11 -5 15 -14 12 -8 -3 -17 -3 -20 0 -12 13 -52 11 -79 -3z"/>
<path d="M988 2466 c-90 -56 -308 -192 -486 -301 l-322 -200 0 -576 c0 -548 1
-577 18 -581 34 -9 899 -536 944 -575 22 -20 3 -30 387 223 24 16 58 37 75 47
17 10 38 25 46 33 22 22 -4 17 -30 -6 -13 -11 -26 -20 -30 -20 -4 0 -23 -12
-43 -27 -20 -16 -61 -43 -91 -62 -30 -18 -61 -39 -67 -47 -6 -8 -20 -14 -30
-14 -11 0 -19 -4 -19 -10 0 -5 -7 -10 -15 -10 -9 0 -18 -6 -21 -14 -6 -15 -61
-41 -95 -45 -5 0 -8 -4 -5 -9 2 -4 -6 -12 -20 -19 -20 -9 -31 -6 -76 21 -53
33 -302 189 -368 231 -31 19 -244 147 -309 186 -14 8 -60 38 -104 66 -44 29
-82 53 -86 53 -4 0 -14 13 -23 28 -15 26 -16 78 -12 563 l4 534 23 18 c53 44
65 53 93 68 53 29 79 44 84 50 8 10 131 86 188 116 28 15 52 31 52 35 0 5 10
13 23 18 12 5 40 21 62 35 22 14 48 28 57 31 10 4 15 10 12 15 -3 5 2 9 10 9
20 0 86 40 86 52 0 5 5 6 10 3 6 -3 10 -1 10 4 0 6 5 11 11 11 6 0 25 11 43
25 18 14 37 25 41 25 4 0 23 11 41 25 18 14 45 30 61 37 35 14 75 20 69 9 -5
-7 92 -61 108 -61 3 0 58 -33 123 -74 65 -40 151 -93 192 -117 41 -24 88 -53
105 -64 18 -11 54 -33 82 -50 27 -16 51 -33 52 -37 2 -4 9 -8 15 -8 7 0 32
-14 57 -30 25 -17 64 -40 87 -51 24 -11 54 -34 68 -51 l25 -30 0 -553 c0 -450
-2 -555 -13 -564 -8 -6 -18 -7 -22 -3 -5 4 -5 1 -1 -6 4 -7 0 -15 -11 -19 -10
-4 -39 -22 -64 -40 -26 -18 -49 -33 -52 -33 -4 0 -53 -31 -111 -70 -57 -38
-108 -70 -113 -70 -6 0 -18 -9 -28 -20 -10 -11 -15 -20 -11 -20 4 0 64 37 134
82 70 45 168 108 218 140 l91 59 1 547 c0 301 -2 561 -5 577 -5 27 -27 43
-220 160 -257 156 -501 305 -640 390 l-101 63 -164 -102z"/>
<path d="M582 2440 c-23 -17 -46 -30 -51 -30 -4 0 -16 -9 -27 -21 -17 -18 -15
-18 21 3 78 46 115 70 115 74 0 10 -18 1 -58 -26z"/>
<path d="M1087 2360 c-27 -17 -46 -25 -42 -18 4 7 -2 4 -12 -7 -10 -12 -39
-31 -65 -44 -27 -12 -48 -27 -48 -32 0 -5 -4 -8 -9 -6 -7 2 -93 -50 -173 -104
-14 -10 -32 -20 -39 -21 -7 -2 -25 -13 -39 -25 -13 -13 -28 -23 -32 -23 -7 0
-105 -62 -125 -80 -7 -5 -17 -10 -23 -10 -5 0 -10 -4 -10 -9 0 -5 -10 -13 -22
-16 -13 -4 -33 -17 -45 -28 -13 -11 -23 -17 -23 -12 0 5 -11 -6 -25 -25 l-25
-33 1 -476 c1 -456 1 -477 20 -508 12 -18 26 -30 33 -27 8 3 23 -7 35 -22 11
-15 21 -23 21 -19 0 4 7 2 15 -5 8 -6 19 -9 24 -6 5 4 13 1 17 -5 5 -8 3 -9
-7 -4 -8 5 -11 4 -6 -1 5 -5 12 -9 15 -9 4 0 28 -15 53 -32 26 -18 49 -29 53
-26 3 4 6 1 6 -5 0 -7 6 -12 14 -12 8 0 16 -4 18 -8 6 -14 96 -72 112 -72 9 0
16 -4 16 -9 0 -6 10 -16 23 -23 13 -7 43 -26 68 -41 128 -80 157 -98 189 -114
19 -10 47 -27 62 -37 15 -10 32 -15 38 -11 5 3 10 2 10 -3 0 -17 52 1 82 29
17 15 34 27 37 26 3 0 40 21 81 47 41 27 109 71 150 97 83 54 95 62 151 102
21 15 42 27 45 27 4 0 29 16 55 35 27 19 51 35 54 35 9 0 70 44 73 53 2 4 8 5
12 2 5 -3 25 11 44 30 34 34 36 39 37 108 3 363 -1 858 -7 881 -8 34 -43 78
-56 70 -4 -3 -8 -1 -8 4 0 10 -49 43 -105 71 -16 9 -35 20 -42 26 -26 22 -39
30 -53 33 -13 3 -70 40 -80 52 -3 4 -19 13 -37 20 -17 8 -29 18 -27 22 3 4 -2
5 -10 2 -9 -3 -16 -1 -16 6 0 6 -4 8 -10 5 -5 -3 -10 -2 -10 2 0 5 -9 14 -21
21 -12 8 -18 9 -14 2 4 -6 -20 7 -52 29 -106 71 -246 152 -272 157 -18 4 -41
-4 -74 -26z m418 -214 c182 -109 354 -213 382 -230 l53 -31 0 -487 0 -487 -62
-37 c-73 -44 -576 -367 -659 -423 l-56 -38 -170 106 c-94 58 -272 169 -396
246 l-226 140 0 485 0 485 42 26 c23 14 103 64 177 111 303 192 565 346 574
340 6 -3 160 -96 341 -206z"/>
<path d="M1085 2239 c-27 -16 -131 -79 -230 -138 -99 -60 -228 -139 -287 -176
l-108 -67 33 -18 c91 -48 463 -271 604 -362 l62 -40 48 29 c27 17 127 81 223
143 96 63 228 146 292 186 l118 71 -148 88 c-291 174 -458 275 -487 295 -50
34 -52 23 -4 -27 26 -27 96 -114 156 -195 l110 -146 -21 -21 c-11 -12 -75
-105 -141 -208 -66 -102 -125 -188 -131 -190 -16 -5 -24 171 -24 515 0 160 -3
292 -7 292 -5 -1 -30 -14 -58 -31z m-32 -41 c-68 -87 -234 -347 -245 -385 -2
-6 39 -54 90 -106 50 -53 92 -93 92 -89 0 4 -31 40 -69 79 -89 91 -98 108 -75
134 9 10 15 22 11 25 -3 3 3 15 14 27 10 11 19 27 19 34 0 7 4 13 9 13 5 0 12
8 15 18 14 36 43 81 50 75 3 -3 6 1 6 10 0 9 11 28 25 42 14 14 24 25 21 25
-3 0 8 14 24 32 16 17 27 35 24 40 -3 4 0 8 7 8 6 0 18 8 25 18 13 16 13 16
14 -1 0 -10 4 -16 9 -13 5 3 9 -133 10 -307 1 -171 5 -322 8 -334 3 -14 1 -23
-7 -23 -6 0 -8 -5 -4 -12 9 -14 -18 5 -49 35 -10 10 -25 16 -33 13 -18 -7 -87
37 -76 49 4 5 1 5 -6 1 -7 -4 -25 3 -42 17 -16 14 -64 44 -105 67 -74 41 -92
66 -56 78 9 3 11 0 6 -7 -5 -9 -1 -9 14 1 25 16 28 33 4 23 -50 -21 -171 -17
-158 5 3 5 0 7 -8 4 -8 -3 -21 6 -31 21 -11 16 -23 24 -32 21 -10 -4 -12 -2
-8 6 5 8 2 9 -10 5 -11 -5 -15 -3 -10 5 5 8 2 9 -9 5 -35 -13 -15 10 33 38 28
17 110 67 183 112 360 225 335 210 320 191z m337 -109 c0 -5 8 -9 18 -9 9 0
28 -9 42 -20 14 -11 30 -20 36 -20 6 0 17 -6 23 -14 7 -8 35 -27 63 -41 74
-39 91 -49 105 -62 7 -6 22 -15 33 -18 11 -3 20 -11 20 -16 0 -6 5 -7 10 -4 6
3 10 1 10 -5 0 -6 4 -8 10 -5 6 3 7 -1 4 -9 -3 -9 -12 -16 -19 -16 -7 0 -24
-9 -39 -21 -14 -11 -31 -17 -38 -13 -7 4 -10 4 -6 -1 8 -8 -13 -23 -157 -113
-55 -35 -112 -72 -127 -84 -14 -11 -38 -22 -51 -23 l-26 -3 21 36 c11 21 23
39 27 42 11 8 42 60 36 60 -6 0 6 16 38 51 9 10 14 19 10 19 -3 0 3 10 15 23
25 27 38 72 23 81 -6 4 -11 14 -11 21 0 15 -18 40 -56 81 -12 13 -19 25 -17
28 3 3 -2 8 -11 12 -9 3 -13 10 -10 15 3 5 -2 12 -11 15 -12 5 -13 10 -5 20
12 13 40 9 40 -7z"/>
<path d="M1670 1682 c-107 -70 -257 -168 -333 -217 l-138 -90 -2 -428 c-1
-235 1 -427 5 -427 4 0 125 78 270 173 145 94 293 190 330 212 l68 40 0 417
c0 229 3 423 6 432 3 9 2 16 -2 16 -5 0 -97 -58 -204 -128z m164 32 c-1 -10
-5 -41 -9 -69 -4 -27 -3 -45 2 -38 4 6 8 -126 8 -294 -1 -257 -3 -306 -15
-313 -9 -6 -10 -10 -3 -10 6 0 13 -8 15 -17 2 -12 -10 -24 -37 -38 -95 -50
-130 -70 -135 -76 -6 -8 -53 -33 -62 -34 -3 0 -10 -4 -15 -9 -5 -5 -3 -6 5 -2
6 4 12 5 12 3 0 -6 -67 -47 -102 -64 -16 -6 -28 -17 -28 -23 0 -6 -4 -8 -10
-5 -5 3 -10 2 -10 -4 0 -6 -11 -13 -25 -17 -14 -3 -25 -11 -25 -17 0 -6 -3 -7
-7 -4 -3 4 -11 0 -17 -8 -6 -7 -17 -15 -25 -17 -7 -2 -27 -15 -44 -30 -22 -20
-34 -24 -43 -17 -8 7 -14 7 -19 -1 -13 -20 -23 -9 -16 18 4 15 7 182 7 372 -1
331 0 345 19 366 11 12 34 28 51 37 17 9 36 23 43 31 8 9 22 16 33 16 10 0 17
4 14 8 -2 4 18 19 46 32 27 13 52 30 55 37 3 7 9 11 13 8 4 -3 13 2 20 10 7 8
18 15 25 15 8 0 15 3 17 8 4 10 55 45 96 66 18 9 41 23 50 31 49 41 98 73 107
71 6 -2 9 -12 9 -22z"/>
<path d="M433 1629 c4 -96 7 -291 7 -434 l1 -260 82 -49 c96 -58 432 -268 529
-332 37 -24 69 -44 70 -44 2 0 2 192 0 427 l-3 428 -32 26 c-18 14 -124 81
-237 149 -113 68 -250 153 -305 189 -55 36 -104 68 -109 70 -6 2 -7 -66 -3
-170z m38 107 c5 3 9 1 9 -5 0 -10 81 -57 88 -52 2 1 12 -8 23 -20 10 -12 19
-19 19 -16 0 4 16 -5 36 -18 19 -13 44 -27 55 -30 11 -4 16 -11 13 -18 -4 -7
-4 -9 1 -5 8 8 74 -27 87 -46 4 -6 8 -7 8 -2 0 5 9 1 20 -9 11 -10 20 -14 20
-9 0 5 4 4 8 -1 13 -19 81 -65 94 -65 8 0 24 -9 36 -20 12 -11 25 -21 29 -21
5 -1 26 -11 47 -24 l39 -24 -79 -50 c-43 -27 -131 -83 -194 -124 -63 -41 -160
-104 -215 -139 -108 -70 -145 -91 -150 -86 -1 2 -5 182 -7 402 -2 219 -2 394
0 387 2 -6 8 -9 13 -5z m616 -758 c3 -247 0 -324 -9 -336 -11 -13 -11 -14 0
-8 10 6 11 1 6 -21 -9 -36 -9 -36 -25 -21 -8 7 -27 19 -42 26 -15 6 -26 16
-23 21 3 5 -7 11 -23 14 -16 3 -35 13 -44 21 -8 8 -17 12 -21 9 -3 -4 -6 -2
-6 4 0 6 -13 16 -30 23 -16 7 -28 15 -26 19 3 4 -5 8 -16 8 -11 1 -28 9 -37
18 -25 24 -105 75 -118 75 -7 0 -13 4 -13 9 0 5 -9 13 -20 16 -11 4 -17 11
-14 17 4 7 2 8 -4 4 -16 -10 -112 54 -111 74 0 6 84 60 94 60 4 0 25 14 46 31
23 18 44 27 51 23 7 -4 10 -4 6 1 -4 4 4 17 19 28 24 19 27 19 38 4 12 -16 13
-16 18 3 3 11 1 18 -4 14 -5 -3 -9 -2 -9 1 0 3 15 12 34 20 18 8 47 25 62 38
16 14 53 36 82 51 28 14 52 30 52 36 0 5 16 14 35 21 19 7 35 17 35 23 0 5 3
6 7 2 4 -4 9 -151 10 -328z"/>
<path d="M268 2244 c-21 -13 -38 -27 -38 -30 0 -6 67 32 85 48 20 17 -11 6
-47 -18z"/>
<path d="M172 2186 c-50 -36 -51 -41 -5 -17 23 11 44 25 48 31 10 16 -8 11
-43 -14z"/>
</g>
</svg>
